# xmcd
#
# Track frame offsets: 
#        150
#        16261
#        37555
#        54770
#        76229
#        100076
#        117883
#        137448
#        159163
#        176402
#        194531
#
# Disc length: 2804 seconds
#
# Revision: 0
# Processed by: cddbd v1.4PL0 Copyright (c) Steve Scherf et al.
# Submitted via: ExactAudioCopy v0.90b4
#
DISCID=6f0af20b
DTITLE=The Sundogs - Heavy Petting
DYEAR=1996
DGENRE=Country
TTITLE0=Love's Got Something to do with You
TTITLE1=Never Been Loved Like This
TTITLE2=Maman Rosin
TTITLE3=Bonjour Tristesse
TTITLE4=Midnight Blue
TTITLE5=La Bal a Chataigner
TTITLE6=Sunnyside Up
TTITLE7=Steppin' Out
TTITLE8=The Road to Skibbereen
TTITLE9=It Won't Hurt
TTITLE10=Seven Come Eleven
EXTD=
EXTT0=
EXTT1=
EXTT2=
EXTT3=
EXTT4=
EXTT5=
EXTT6=
EXTT7=
EXTT8=
EXTT9=
EXTT10=
PLAYORDER=
